# xmcd
#
# Track frame offsets:
# 150
# 18750
# 33910
# 50665
# 63190
# 76482
# 95740
# 115430
# 131930
# 151355
# 166805
# 183005
#
# Disc length: 2633 seconds
#
# Revision: 0
# Processed by: cddbd v1.5.1PL2 Copyright (c) Steve Scherf et al.
# Submitted via: Axialis_AX_CDPlayer 2.6
#
DISCID=960a470c
DTITLE=Candlelight - Piano By Candlelight - The Music Of Nat King Cole
DYEAR=1900
DGENRE=
TTITLE0=The Very Thought Of You
TTITLE1=Unforgettable
TTITLE2=Stardust
TTITLE3=Autumn Leaves
TTITLE4=Moonlight In Vermont
TTITLE5=I Love You For Sentimental Reasons
TTITLE6=A Nightingale Sang In Berkley Square
TTITLE7=Darling, Je Vous Aime Beaucoup - September Song
TTITLE8=When I Fall In Love
TTITLE9=Smile
TTITLE10=Nature Boy
TTITLE11=Mona Lisa
EXTD=
EXTT0=
EXTT1=
EXTT2=
EXTT3=
EXTT4=
EXTT5=
EXTT6=
EXTT7=
EXTT8=
EXTT9=
EXTT10=
EXTT11=
PLAYORDER=
